<svg width="59" height="61" viewBox="0 0 59 61" fill="none" xmlns="http://www.w3.org/2000/svg">
<g clip-path="url(#clip0_259_201)">
<path d="M0.230469 55.0931C19.8251 54.9961 39.4198 54.9961 59.1225 54.9961C59.2305 57.0635 59.2305 59.131 59.2305 61.1974C39.5638 61.1964 19.8971 61.1964 0.230469 61.1964C0.230469 59.1872 0.230469 57.1887 0.230469 55.0931Z" fill="white"/>
<path d="M20.9721 38.0194C20.9721 36.5028 20.9844 35.0896 20.9689 33.6767C20.9505 31.9964 22.5694 30.0575 24.8825 30.1273C28.1399 30.2257 31.4039 30.1492 34.665 30.1533C36.6882 30.1558 38.4471 31.5258 38.4643 33.3413C38.5226 39.4728 38.4865 45.6051 38.4865 51.8137C32.6658 51.8137 26.8969 51.8137 20.9721 51.8137C20.9721 47.2606 20.9721 42.6918 20.9721 38.0194Z" fill="white"/>
<path d="M46.0946 51.8907C44.6041 51.8907 43.2288 51.8907 41.7852 51.8907C41.7852 47.0427 41.7852 42.2714 41.7852 37.403C44.2726 37.403 46.7226 37.3349 49.1651 37.4277C50.7099 37.4864 52.2732 39.0744 52.2967 40.5748C52.355 44.2962 52.3158 48.0189 52.3158 51.8907C50.2457 51.8907 48.2277 51.8907 46.0946 51.8907Z" fill="white"/>
<path d="M7.16518 51.6194C7.14882 49.7271 7.17326 47.9327 7.13723 46.1392C7.10371 44.4708 8.72528 42.4194 11.1326 42.5499C13.2727 42.6658 15.4267 42.5742 17.7465 42.5742C17.7465 44.1534 17.7465 45.6899 17.7465 47.2265C17.7465 48.7385 17.7465 50.2505 17.7465 51.8906C15.3397 51.8906 13.0113 51.9091 10.6835 51.8828C9.51492 51.8697 8.34752 51.7753 7.16518 51.6194Z" fill="white"/>
<path d="M44.0636 0C45.2731 3.37422 45.4054 6.77017 43.9007 10.0267C42.9705 12.0398 41.137 13.1391 38.882 13.359C38.1546 13.43 37.8109 13.7013 37.6036 14.3477C36.7512 17.0061 34.9595 18.788 32.2863 19.68C31.5224 19.9349 31.1657 20.3572 31.2498 21.1484C31.2772 21.4057 31.2512 21.6684 31.2519 21.9287C31.256 23.5598 31.2552 23.5935 32.8988 23.6415C33.7524 23.6665 34.3676 24.0861 34.4732 24.8027C34.5567 25.3698 34.2671 26.055 33.9601 26.5849C33.8113 26.8418 33.244 26.9675 32.8634 26.9734C30.5978 27.0086 28.3314 27.0047 26.0655 26.9858C24.9893 26.9769 24.2251 26.2269 24.253 25.2804C24.2799 24.3691 25.0084 23.7052 26.0377 23.6541C27.618 23.5755 27.5493 23.5715 27.646 21.9827C27.725 20.6854 27.4405 19.9181 26.0141 19.4388C23.6854 18.6563 22.1524 16.9068 21.3629 14.6062C21.092 13.8166 20.7634 13.4236 19.8204 13.3419C16.7029 13.0718 14.1246 10.1582 14.0389 6.92274C13.9956 5.28794 13.9709 3.64788 14.0613 2.01683C14.096 1.39006 14.4741 0.78171 14.701 0.0824831C24.4567 0 34.2071 0 44.0636 0ZM17.655 6.29626C17.6176 7.71472 18.2373 8.80432 19.4352 9.54753C20.2725 10.067 20.7886 9.77927 20.812 8.80459C20.8431 7.51029 20.8286 6.21477 20.8236 4.91981C20.8177 3.38342 20.7804 3.35046 19.2654 3.34798C17.7013 3.34542 17.6668 3.37711 17.6541 4.86813C17.6506 5.2751 17.6537 5.68213 17.655 6.29626ZM38.0522 8.5223C38.1753 8.92082 38.2983 9.31934 38.4214 9.71786C38.9024 9.56038 39.4644 9.5094 39.8495 9.22571C41.0707 8.32612 41.7934 5.17877 41.1272 3.80535C41.0266 3.59789 40.6867 3.43785 40.4299 3.3845C40.0696 3.30966 39.6815 3.37753 39.3088 3.34509C38.4047 3.26641 38.0044 3.61961 38.0414 4.54847C38.0914 5.8024 38.0522 7.05977 38.0522 8.5223Z" fill="white"/>
</g>
<defs>
<clipPath id="clip0_259_201">
<rect width="59" height="61" fill="white"/>
</clipPath>
</defs>
</svg>
