<svg width="60" height="60" viewBox="0 0 60 60" fill="none" xmlns="http://www.w3.org/2000/svg">
<g clip-path="url(#clip0_271_2292)">
<path d="M7.7344 48.0469C7.73441 33.6772 7.73422 19.4247 7.73471 5.17218C7.73476 3.77715 8.6944 2.62117 10.0965 2.5996C13.8744 2.54149 17.6537 2.57973 21.4971 2.57973C21.4971 5.15851 21.4971 7.64257 21.4971 10.3125C20.5673 10.3125 19.6106 10.3256 18.6545 10.31C16.1359 10.2689 15.2852 11.3986 15.2607 13.6182C15.1881 20.1775 15.2088 26.7382 15.2593 33.2979C15.2681 34.4406 15.6306 35.4722 16.779 36.2002C18.1333 37.0589 19.2876 38.2268 20.5804 39.1914C21.3635 39.7757 21.5959 40.4519 21.5869 41.4209C21.5363 46.8471 21.5625 52.2741 21.5625 57.7757C21.28 57.8165 21.0248 57.8849 20.7694 57.8854C17.3332 57.8926 13.897 57.9014 10.4608 57.8859C8.75458 57.8782 7.73496 56.8477 7.73455 55.1926C7.73398 52.8498 7.73441 50.5069 7.7344 48.0469Z" fill="white"/>
<path d="M23.9062 50.6251C23.9062 47.5478 23.9062 44.5877 23.9062 41.5564C33.5305 41.5564 43.0702 41.5564 52.7344 41.5564C52.7344 43.2922 52.7344 44.998 52.7344 46.7039C52.7344 49.5149 52.7346 52.3259 52.7343 55.1369C52.7341 56.8655 51.7217 57.8814 49.9473 57.8872C46.4336 57.8988 42.9198 57.8907 39.406 57.8907C34.2954 57.8907 29.1849 57.8907 23.9062 57.8907C23.9062 55.4702 23.9062 53.1062 23.9062 50.6251Z" fill="white"/>
<path d="M17.5781 28.3574C17.5781 23.0946 17.5781 17.9485 17.5781 12.7295C27.2769 12.7295 36.8939 12.7295 46.5758 12.7295C46.5758 18.9863 46.5758 25.218 46.5758 31.5452C41.7204 31.5452 36.8372 31.5452 32.102 31.5452C32.3041 30.3037 32.5082 29.0497 32.7351 27.6562C35.163 27.6562 37.8906 27.6583 40.6181 27.6554C42.2415 27.6536 42.654 27.2337 42.6556 25.5853C42.658 23.1259 42.6484 20.6665 42.6598 18.2072C42.6647 17.1565 42.1843 16.6371 41.1199 16.6381C35.1082 16.6435 29.0964 16.6427 23.0847 16.6388C22.0155 16.6381 21.5518 17.173 21.5579 18.2214C21.5724 20.6806 21.561 23.14 21.5631 25.5994C21.5644 27.0303 21.5856 27.0601 22.8329 27.7037C22.9899 28.9836 23.1427 30.2292 23.3051 31.5528C21.5139 31.5528 19.6305 31.5528 17.5781 31.5528C17.5781 30.5469 17.5781 29.5105 17.5781 28.3574Z" fill="white"/>
<path d="M23.9062 8.1917C23.9062 6.28888 23.9062 4.50189 23.9062 2.63651C24.3694 2.61435 24.7466 2.58069 25.1239 2.58055C33.3179 2.57753 41.512 2.57717 49.706 2.57897C51.8264 2.57944 52.7343 3.47631 52.7344 5.5563C52.7344 6.33668 52.6493 7.12851 52.7525 7.895C52.9506 9.36581 51.561 10.3021 50.3892 10.3038C41.6881 10.316 32.9869 10.3053 24.2857 10.2992C24.2125 10.2992 24.1393 10.2645 23.9062 10.2057C23.9062 9.60235 23.9062 8.95493 23.9062 8.1917Z" fill="white"/>
<path d="M50.0929 36.6176C51.0294 37.3967 51.905 38.1168 53.0233 39.0366C52.3791 39.0886 52.0571 39.1372 51.7351 39.1374C42.712 39.1415 33.6887 39.1068 24.6663 39.1807C23.4486 39.1906 23.0005 38.2856 22.2619 37.7749C20.6892 36.6875 19.2713 35.3762 17.6227 34.0189C20.6472 34.0189 23.499 34.0189 26.4595 34.0189C26.3357 32.7842 26.8887 31.6863 25.7136 30.6555C24.6359 29.7102 24.9329 27.8732 25.9959 26.9632C26.9568 26.1405 28.7398 26.2407 29.6305 27.1673C30.3222 27.887 30.6424 29.5868 29.9378 30.2675C28.8259 31.3416 29.0844 32.5687 29.0883 33.9844C29.5286 33.9844 29.9409 33.9844 30.3531 33.9844C35.0014 33.9844 39.6536 34.097 44.2959 33.9312C46.2618 33.861 47.7053 34.5127 49.0342 35.7823C49.3373 36.0719 49.6979 36.3015 50.0929 36.6176Z" fill="white"/>
<path d="M38.7217 24.9078C37.9276 25.5593 37.2726 25.4629 36.6307 24.8038C35.5197 23.6631 34.3721 22.5579 33.2647 21.4138C32.7554 20.8877 32.2145 20.3249 32.8579 19.5287C33.5445 18.679 34.4438 18.771 35.1069 19.3464C36.4231 20.4884 37.6664 21.7355 38.7866 23.068C39.0771 23.4135 38.801 24.2354 38.7217 24.9078Z" fill="white"/>
<path d="M27.9238 19.6031C28.5343 20.217 29.1775 20.7037 29.6091 21.335C29.95 21.8338 30.219 22.5208 30.1865 23.1057C30.1255 24.2051 28.9625 24.4985 28.0276 23.6657C27.1859 22.9161 26.3468 22.1395 25.6516 21.2602C25.3372 20.8624 25.1309 20.0878 25.3052 19.6588C25.621 18.8818 26.4226 18.8037 27.1893 19.1135C27.4322 19.2116 27.641 19.3942 27.9238 19.6031Z" fill="white"/>
</g>
<defs>
<clipPath id="clip0_271_2292">
<rect width="60" height="60" fill="white"/>
</clipPath>
</defs>
</svg>
