<svg width="74" height="66" viewBox="0 0 74 66" fill="none" xmlns="http://www.w3.org/2000/svg">
<g clip-path="url(#clip0_259_212)">
<path d="M40.5454 0.257813C41.866 1.37448 43.0722 2.47585 44.2297 3.61818C44.5321 3.91661 44.6831 4.34245 44.7868 4.80324C39.6558 4.89472 34.6415 4.89274 29.6272 4.89076C30.3658 2.97044 31.9105 1.64807 33.6051 0.347827C35.8735 0.257812 38.1431 0.257812 40.5454 0.257813Z" fill="white"/>
<path d="M25.1509 60.2816C26.6701 62.0896 26.6386 62.6892 25.022 64.5843C24.071 64.6481 23.026 64.6481 21.8507 64.6481C21.6244 64.3834 21.5669 64.1001 21.4261 63.8569C20.5412 62.3276 20.6204 61.7368 22.0588 60.3543C23.1814 60.2634 24.1662 60.2725 25.1509 60.2816Z" fill="white"/>
<path d="M35.715 64.6481C35.3018 63.9373 34.8151 63.2313 34.795 62.5144C34.7761 61.8354 35.2466 61.145 35.6433 60.356C36.8616 60.2621 37.9384 60.2719 39.0153 60.2816C40.0692 61.7451 40.2971 63.1713 38.8824 64.5834C37.9353 64.6481 36.8903 64.6481 35.715 64.6481Z" fill="white"/>
<path d="M49.5803 64.648C49.3849 64.4608 49.3753 64.2301 49.2461 64.0931C47.9732 62.7428 47.996 61.8219 49.5051 60.3555C50.6287 60.264 51.6134 60.2726 52.5981 60.2811C54.0502 62.0042 54.0581 62.656 52.7476 64.5833C51.8006 64.648 50.7556 64.648 49.5803 64.648Z" fill="white"/>
<path d="M23.0493 37.9826C23.7532 32.7962 24.4818 27.6618 20.7294 22.9706C18.9911 20.7974 18.0244 18.2725 18.7096 15.4241C19.0768 13.8977 20.0654 12.8893 21.3697 12.062C22.6895 11.2249 24.1203 10.5289 25.423 9.67236C26.0999 9.22732 26.6052 8.56911 27.3183 8.04883C27.5149 9.54201 27.5823 10.9935 27.6473 12.4451C27.7379 14.4678 29.0149 15.7163 31.2504 15.9089C32.0991 15.982 32.9573 15.9661 33.7805 16.0878C31.0039 23.5009 30.1172 31.06 30.0177 38.7543C29.2846 38.779 28.6757 38.7861 28.0668 38.7963C26.1729 38.8282 25.4202 39.4007 24.9527 41.0488C24.2891 39.9728 23.6692 38.9777 23.0493 37.9826Z" fill="white"/>
<path d="M33.4493 16.2786C32.6076 16.2541 31.7618 16.2699 30.9252 16.1972C28.7217 16.0058 27.463 14.7653 27.3737 12.7556C27.3096 11.3133 27.2432 9.87106 27.123 8.33375C27.265 6.78575 27.953 5.63105 29.5428 4.93146C34.6423 4.89274 39.6566 4.89472 44.8045 4.8938C46.4403 5.50572 47.2262 6.59784 47.4292 8.24191C47.3235 9.10886 47.1834 9.78579 47.2132 10.4565C47.3865 14.3638 47.2407 16.3844 40.9914 16.2613C38.3961 16.2552 35.9227 16.2669 33.4493 16.2786Z" fill="white"/>
<path d="M48.8694 51.5029C46.4205 51.5238 43.9716 51.5446 41.2581 51.5565C38.4314 51.5559 35.8693 51.5641 33.3071 51.5724C30.8575 51.5606 28.4078 51.5488 25.8201 51.4172C25.3971 48.6608 25.1122 46.0242 24.9599 43.3816C27.602 43.5701 30.1628 43.5434 32.608 44.0147C35.7144 44.6136 38.7281 44.7767 41.799 44.0187C44.4002 43.3767 47.0311 42.9548 49.7386 43.5049C49.4484 46.2479 49.1589 48.8754 48.8694 51.5029Z" fill="white"/>
<path d="M52.6913 61.0437C51.6139 61.0774 50.6292 61.0689 49.5299 61.0734C46.0356 61.0818 42.6559 61.0772 39.146 61.0795C37.9389 61.0767 36.8621 61.0669 35.6697 61.0709C32.173 61.0806 28.7919 61.0766 25.2806 61.0795C24.1657 61.0773 23.1809 61.0682 22.0817 61.0725C20.3914 60.3843 20.7942 59.1302 21.0108 57.9999C21.2675 56.6607 22.3823 56.1904 23.7407 56.1794C26.8368 56.1544 29.9333 56.1699 33.2724 56.1996C36.1025 56.2053 38.6898 56.1805 41.2772 56.1557C44.4678 56.1611 47.6599 56.1158 50.8482 56.1974C52.07 56.2287 53.2467 56.6247 53.5225 57.9527C53.7506 59.0509 54.1595 60.2138 52.6913 61.0437Z" fill="white"/>
<path d="M25.5529 43.0382C25.8779 45.8267 26.2029 48.6153 26.5366 51.5122C20.9063 50.6685 16.9166 46.6535 16.8781 41.6384C17.5395 40.1138 18.1626 38.8042 18.7857 37.4947C20.2026 37.1634 21.6147 36.6525 23.1748 37.4444C23.9852 38.5229 24.682 39.5686 25.4488 40.8214C25.53 41.6984 25.5415 42.3683 25.5529 43.0382Z" fill="white"/>
<path d="M41.2635 56.8414C38.6895 56.9855 36.1021 57.0103 33.4025 56.9973C33.2995 55.2436 33.3089 53.5277 33.3124 51.6921C35.8686 51.5642 38.4307 51.556 41.1258 51.5601C41.2559 53.289 41.253 55.0056 41.2635 56.8414Z" fill="white"/>
<path d="M19.2927 37.9578C18.6094 39.2978 17.9241 40.5297 17.1879 41.8536C16.3192 39.1776 15.5014 36.4097 14.684 33.6416C14.5618 33.2277 14.4412 32.8135 14.4669 32.2893C15.714 32.1855 16.8139 32.1918 17.9139 32.1981C18.3728 34.082 18.8318 35.9659 19.2927 37.9578Z" fill="white"/>
<path d="M17.9043 32.2411C16.9153 32.2426 16.0384 32.2363 15.0303 32.2377C14.4278 32.236 13.8661 32.3709 13.5064 32.1836C12.9688 31.9036 12.2059 31.3896 12.2155 30.9887C12.2264 30.5401 12.9549 29.7718 13.4363 29.7273C15.1159 29.5719 16.8402 29.5482 18.5111 29.7389C19.0605 29.8016 19.8928 30.6616 19.9032 31.1687C19.9222 32.0958 18.9288 32.2694 17.9043 32.2411Z" fill="white"/>
<path d="M40.2195 16.031C46.7529 16.1367 46.9084 14.1051 46.7235 10.1764C46.6918 9.502 46.8411 8.82136 46.9654 8.04883C48.6852 9.10218 50.1977 10.482 52.0367 11.353C56.6926 13.5581 57.109 17.0837 55.3787 20.7317C54.8337 21.8806 54.1013 22.9818 53.3082 24.0225C50.9795 27.0778 50.547 30.4002 51.1522 33.9229C51.3708 35.1955 51.4075 36.4912 51.4732 37.9651C50.7752 39.1509 50.1312 40.148 49.462 41.0488C48.9319 39.362 48.1813 38.8512 46.3032 38.8135C45.562 38.7986 44.8209 38.7759 44.0853 38.6383C44.0725 30.862 43.1155 23.3233 40.2195 16.031Z" fill="white"/>
<path d="M49.2193 40.1419C49.9121 39.0425 50.605 37.9431 51.3592 36.7621C52.848 35.9837 54.2748 36.0888 55.8592 36.7844C56.6527 38.2628 57.2881 39.6402 57.9235 41.0176C58.056 45.6039 54.2529 50.3868 48.2683 51.5122C48.4779 48.5883 48.81 45.6754 49.1502 42.5007C49.1787 41.5399 49.199 40.8409 49.2193 40.1419Z" fill="white"/>
<path d="M57.3035 42.6585C56.6662 41.4022 56.104 40.0658 55.5122 38.6364C55.8583 36.5028 56.2339 34.4622 56.7384 32.3029C57.757 32.1883 58.6468 32.1925 59.5366 32.1966C58.8173 35.6572 58.0979 39.1178 57.3035 42.6585Z" fill="white"/>
<path d="M59.7865 32.239C58.7905 32.2415 57.9139 32.2377 56.9059 32.2411C56.314 32.1942 55.7453 32.2722 55.4209 32.0517C55.0364 31.7904 54.5363 31.115 54.6629 30.8966C54.9526 30.397 55.5587 29.775 56.0978 29.7221C57.6777 29.567 59.3046 29.5448 60.8769 29.7282C61.4532 29.7954 62.2817 30.5366 62.3681 31.0567C62.506 31.8873 61.661 32.24 60.752 32.2258C60.4701 32.2214 60.1879 32.23 59.7865 32.239Z" fill="white"/>
</g>
<defs>
<clipPath id="clip0_259_212">
<rect width="72.439" height="66" fill="white" transform="translate(0.780518)"/>
</clipPath>
</defs>
</svg>
