<svg width="75" height="54" viewBox="0 0 75 54" fill="none" xmlns="http://www.w3.org/2000/svg">
<path d="M74.7582 30.4V11.4L56.0686 0L37.3791 11.4L18.6895 0L0 11.4V30.4L37.3791 53.2L74.7582 30.4ZM26.1654 22.8H18.6895V30.4H14.9516V22.8H7.47582V19H14.9516V11.4H18.6895V19H26.1654V22.8ZM48.5928 30.4C47.6015 30.4 46.6507 29.9996 45.9497 29.287C45.2487 28.5744 44.8549 27.6078 44.8549 26.6C44.8549 24.51 46.537 22.8 48.5928 22.8C50.6487 22.8 52.3307 24.51 52.3307 26.6C52.3307 28.69 50.6487 30.4 48.5928 30.4ZM59.8065 22.8C59.3157 22.8 58.8296 22.7017 58.3761 22.5107C57.9226 22.3198 57.5105 22.0399 57.1634 21.687C56.8163 21.3341 56.541 20.9152 56.3532 20.4542C56.1653 19.9932 56.0686 19.499 56.0686 19C56.0686 16.91 57.7507 15.2 59.8065 15.2C61.8624 15.2 63.5445 16.91 63.5445 19C63.5445 21.09 61.8624 22.8 59.8065 22.8Z" fill="white"/>
</svg>
