<svg width="77" height="60" viewBox="0 0 77 60" fill="none" xmlns="http://www.w3.org/2000/svg">
<g clip-path="url(#clip0_271_2323)">
<path d="M23.5859 16.1133C35.0063 16.1133 46.2511 16.1393 57.4955 16.0998C61.6898 16.0851 65.885 15.9497 70.0767 15.8066C72.3306 15.7297 74.5779 15.52 76.9253 15.3638C76.9253 21.3249 76.9253 27.2885 76.9253 33.3253C67.7429 33.3253 58.6294 33.3253 49.2496 33.3253C50.2723 29.3008 48.9812 25.8454 45.1824 23.2113C42.6331 21.4436 39.5131 20.9804 36.3467 21.4304C33.1037 21.8913 30.5734 23.3913 28.826 25.8159C27.1391 28.1565 26.7192 30.6096 27.5595 33.3187C18.1822 33.3187 9.01978 33.3187 -0.231567 33.3187C-0.231567 27.3262 -0.231567 21.3912 -0.231567 15.5299C7.65186 15.7244 15.531 15.9189 23.5859 16.1133Z" fill="white"/>
<path d="M17.2578 39.844C17.2578 42.1269 17.2578 44.2634 17.2578 46.5857C11.3845 46.7987 5.62385 47.0076 -0.233521 47.22C-0.233521 42.9512 -0.233521 38.874 -0.233521 34.6833C5.50175 34.6833 11.2552 34.6833 17.2578 34.6833C17.2578 36.327 17.2578 38.0123 17.2578 39.844Z" fill="white"/>
<path d="M77.0234 45.6601C76.9918 46.2241 76.9602 46.6463 76.9174 47.2189C71.0808 47.0097 65.3595 46.8046 59.545 46.5962C59.545 42.5532 59.545 38.6349 59.545 34.6433C65.3244 34.6433 71.0368 34.6433 77.0235 34.6433C77.0235 38.2549 77.0235 41.8865 77.0234 45.6601Z" fill="white"/>
<path d="M33.4233 46.582C28.4634 46.582 23.6779 46.582 18.7787 46.582C18.7787 42.5731 18.7787 38.6576 18.7787 34.5756C21.817 34.5756 24.8371 34.5646 27.8565 34.596C28.1029 34.5986 28.4439 34.847 28.5743 35.054C30.4729 38.069 33.6595 39.4446 37.5814 39.9689C37.5814 42.1172 37.5814 44.2474 37.5814 46.582C36.237 46.582 34.9174 46.582 33.4233 46.582Z" fill="white"/>
<path d="M39.0547 44.7911C39.0547 43.0965 39.0547 41.5439 39.0547 39.9862C43.0353 39.4444 46.2094 38.0582 48.1378 35.0646C48.2986 34.815 48.8283 34.5973 49.191 34.5925C52.0515 34.5541 54.913 34.5712 57.9065 34.5712C57.9065 38.5489 57.9065 42.465 57.9065 46.4822C51.7174 46.4822 45.4973 46.4822 39.0547 46.4822C39.0547 45.9669 39.0547 45.45 39.0547 44.7911Z" fill="white"/>
<path d="M44.6788 55.3711C46.4352 55.3712 48.017 55.3413 49.5965 55.3787C51.8276 55.4314 52.7466 56.2263 52.7644 58.0436C52.7715 58.7641 52.7656 59.4848 52.7656 60.3516C47.8853 60.3516 43.1603 60.3516 38.4353 60.3516C33.6957 60.3516 28.9561 60.3516 23.9566 60.3516C23.9566 59.2539 23.7674 58.1762 24.001 57.1664C24.3501 55.6576 25.856 55.3702 27.4658 55.3706C33.145 55.3719 38.8241 55.3711 44.6788 55.3711Z" fill="white"/>
<path d="M37.6484 27.5226C38.0294 29.4591 37.4283 30.7219 35.2404 31.4969C33.3593 32.1632 31.6417 33.1499 29.723 34.0556C28.023 31.761 28.2102 29.4177 29.4871 27.2103C31.0483 24.5114 33.6916 22.8472 37.6484 22.4863C37.6484 24.1967 37.6484 25.7881 37.6484 27.5226Z" fill="white"/>
<path d="M47.4217 33.5399C46.97 33.665 46.4891 33.8194 46.1992 33.6859C44.0001 32.673 41.8298 31.6156 39.6753 30.5377C39.3964 30.3981 39.0883 30.0636 39.0836 29.8157C39.0391 27.4389 39.057 25.0613 39.057 22.6917C44.3947 22.4294 50.1201 27.8624 47.4217 33.5399Z" fill="white"/>
<path d="M31.4301 34.6238C33.1005 33.7774 34.7147 33.051 36.2398 32.2119C37.6794 31.4199 38.9626 31.38 40.4336 32.2003C42.328 33.2569 44.3383 34.1694 46.2989 35.1441C43.1007 39.4954 34.667 40.209 30.3347 35.2294C30.6702 35.05 31.0026 34.8723 31.4301 34.6238Z" fill="white"/>
<path d="M35.5701 47.7539C38.303 47.7539 40.8634 47.7539 43.5236 47.7539C43.5236 49.9328 43.5236 51.9955 43.5236 54.1289C40.082 54.1289 36.7118 54.1289 33.2096 54.1289C33.2096 52.0729 33.2096 50.0095 33.2096 47.7539C33.9249 47.7539 34.6612 47.7539 35.5701 47.7539Z" fill="white"/>
</g>
<defs>
<clipPath id="clip0_271_2323">
<rect width="77" height="60" fill="white"/>
</clipPath>
</defs>
</svg>
