<svg width="60" height="60" viewBox="0 0 60 60" fill="none" xmlns="http://www.w3.org/2000/svg">
<g clip-path="url(#clip0_271_2275)">
<path d="M0.234375 50.5004C0.461488 50.1914 0.787356 50.0367 0.90011 49.786C1.81092 47.7616 3.32818 46.5501 5.45982 45.8917C9.25085 44.7207 12.9885 43.3776 16.7687 42.1697C17.168 42.0421 17.8534 42.1772 18.15 42.4595C20.775 44.9589 23.8461 46.6727 27.3878 47.2806C32.3232 48.1278 36.8062 46.8557 40.7454 43.7424C41.2588 43.3365 41.7813 42.9327 42.2388 42.4681C42.7001 41.9995 43.0836 41.903 43.7659 42.1383C47.8055 43.5318 51.8942 44.7842 55.9254 46.2006C57.7821 46.8531 58.9915 48.3094 59.7775 50.1066C59.8496 50.2714 59.9987 50.4026 60.1732 50.47C60.2344 53.6676 60.2344 56.9446 60.2344 60.2212C40.2344 60.2208 20.2344 60.2208 0.234376 60.2208C0.234376 57.0082 0.234376 53.8092 0.234375 50.5004Z" fill="white"/>
<path d="M34.1089 0.234375C34.4062 0.391772 34.5698 0.632372 34.7848 0.694244C38.8404 1.86149 41.822 4.32931 43.7634 8.06391C43.9144 8.35433 43.9945 8.68163 44.1382 9.07618C34.8191 9.07618 25.6429 9.07618 16.1002 9.07618C16.9385 7.72282 17.5209 6.4669 18.3851 5.45057C20.4167 3.06142 22.8802 1.27062 26.0578 0.668855C26.187 0.644387 26.2895 0.478655 26.3272 0.306557C28.833 0.234374 31.4161 0.234374 34.1089 0.234375Z" fill="white"/>
<path d="M10.5974 15.5788C11.5702 13.5779 13.0889 12.6468 15.2346 12.6499C25.2315 12.6642 35.2287 12.6968 45.2251 12.6307C48.1068 12.6117 50.276 14.8158 50.3723 17.6933C50.4585 20.2677 50.4341 22.8482 50.3781 25.4244C50.3229 27.9658 47.9755 30.2897 45.5018 30.2694C35.3103 30.1856 25.1175 30.1922 14.9259 30.2651C12.4901 30.2825 10.1771 28.0117 10.097 25.5002C10.0135 22.8864 10.0468 20.2674 10.1002 17.6521C10.1138 16.9857 10.397 16.3248 10.5974 15.5788ZM16.1014 22.7342C17.4159 22.7342 18.7305 22.7342 20.0879 22.7342C20.0879 21.0476 20.0879 19.4759 20.0879 17.8919C18.4465 17.8919 16.8744 17.8919 15.2352 17.8919C15.2352 19.3295 15.2047 20.6898 15.2641 22.0461C15.2745 22.2836 15.6627 22.5047 16.1014 22.7342Z" fill="white"/>
<path d="M39.8295 33.9844C40.669 33.9844 41.3939 33.9844 42.154 33.9844C40.5967 38.9404 35.5261 42.3697 31.2372 42.6931C25.1158 43.1545 19.9011 38.8895 18.3069 33.9844C25.4722 33.9844 32.5936 33.9844 39.8295 33.9844Z" fill="white"/>
</g>
<defs>
<clipPath id="clip0_271_2275">
<rect width="60" height="60" fill="white"/>
</clipPath>
</defs>
</svg>
