<svg width="65" height="50" viewBox="0 0 65 50" fill="none" xmlns="http://www.w3.org/2000/svg">
<path d="M1.30654 36.4516C-1.11281 38.0645 -0.306363 41.129 4.85493 42.5806C10.1775 44.3548 15.984 44.8387 21.6291 43.871C21.9517 43.871 22.2743 43.7097 22.4356 43.7097V38.2258L16.9517 40C14.8549 40.6452 12.7582 40.8065 10.6614 40.3226C9.04848 39.8387 9.37106 38.871 11.3065 38.0645L22.4356 34.1936V28.2258L6.9517 33.5484C5.01622 34.1935 3.08073 35.1613 1.30654 36.4516ZM38.7259 12.2581V27.9032C45.3388 31.129 50.5001 27.9032 50.5001 19.5161C50.5001 10.9677 47.4356 7.09677 38.5646 4.03226C33.8872 2.41935 29.0485 0.967742 24.2098 0V46.6129L35.5001 50V10.8065C35.5001 9.03226 35.5001 7.74194 36.7904 8.22581C38.5646 8.70968 38.7259 10.4839 38.7259 12.2581ZM59.6936 32.7419C55.0162 31.129 50.0162 30.4839 45.1775 30.9677C42.5969 31.129 40.1775 31.7742 37.9194 32.5806L37.4356 32.7419V39.0323L47.9194 35.1613C50.0162 34.5161 52.113 34.3548 54.2098 34.8387C55.8227 35.3226 55.5001 36.2903 53.5646 37.0968L37.4356 43.0645V49.1936L59.6936 40.9677C61.3065 40.3226 62.7582 39.5161 64.0485 38.2258C65.1775 36.6129 64.6936 34.3548 59.6936 32.7419Z" fill="white"/>
</svg>
