<svg width="50" height="50" viewBox="0 0 50 50" fill="none" xmlns="http://www.w3.org/2000/svg">
<path d="M0.00285454 40.2989C0.00121972 41.8005 1.11013 43.0721 2.59805 43.2747L16.9674 45.2315C18.768 45.4767 20.3714 44.0775 20.3722 42.2603L20.3781 29.0302C20.3788 27.3795 19.0458 26.0383 17.3952 26.0289L3.03228 25.9472C1.37006 25.9377 0.0170261 27.2816 0.0152164 28.9439L0.00285454 40.2989ZM17.3827 23.8015C19.031 23.7908 20.362 22.4523 20.3633 20.8039L20.3738 7.55943C20.3752 5.73918 18.7684 4.33708 16.9651 4.58501L2.60697 6.55909C1.12207 6.76325 0.0156948 8.03205 0.0155918 9.53093L0.0148109 20.8943C0.0146965 22.5588 1.36975 23.9052 3.03425 23.8944L17.3827 23.8015ZM22.8302 43.4641C22.8302 44.9536 23.9231 46.2176 25.397 46.4327L46.4065 49.4989C48.2166 49.7631 49.8398 48.3597 49.8398 46.5304V29.2722C49.8398 27.6246 48.5111 26.2854 46.8635 26.2723L25.854 26.1057C24.1879 26.0925 22.8302 27.4394 22.8302 29.1056V43.4641ZM46.8501 23.6021C48.5053 23.5994 49.8456 22.2565 49.8452 20.6013L49.8405 3.45219C49.84 1.62891 48.2266 0.227644 46.4212 0.482452L25.4058 3.44851C23.9278 3.65712 22.8279 4.92066 22.8251 6.41336L22.798 20.6308C22.7948 22.2918 24.1419 23.6392 25.8029 23.6365L46.8501 23.6021Z" fill="white"/>
</svg>
