<svg width="48" height="50" viewBox="0 0 48 50" fill="none" xmlns="http://www.w3.org/2000/svg">
<path d="M6.93598 7.76065C11.6087 2.83818 18.3356 -0.0214124 25.1228 0.000120744C25.1228 3.45834 25.1272 6.92086 25.1228 10.3791C20.5363 10.4221 15.9885 12.6271 13.3098 16.3825C9.92909 20.926 9.58456 27.4634 12.4786 32.3342C14.9894 36.8131 20.0195 39.5952 25.1228 39.621C25.1272 43.0793 25.1272 46.5418 25.1228 50C19.1409 50.0043 13.1935 47.8165 8.68017 43.8889C3.34857 39.3368 0.0712305 32.4548 0.00663114 25.4307C-0.148407 18.9277 2.42265 12.4376 6.93598 7.76065ZM25.4458 20.5039H47.8144C47.8144 27.9802 47.8187 35.4565 47.8101 42.9285C44.3777 42.9242 40.9411 42.9242 37.5087 42.9285C37.5001 38.9018 37.5087 34.8708 37.5044 30.8441C33.4863 30.8398 29.4682 30.8398 25.4501 30.8441C25.4415 27.3988 25.4458 23.9492 25.4458 20.5039Z" fill="white"/>
</svg>
