<svg width="52" height="50" viewBox="0 0 52 50" fill="none" xmlns="http://www.w3.org/2000/svg">
<path fill-rule="evenodd" clip-rule="evenodd" d="M17.738 16.6462L14.3723 9.824L18.4052 2.45605L25.6822 5.12438L19.5875 15.5849L17.738 16.3128V16.6462ZM31.0788 15.3424L33.5955 16.3736L43.8445 30.8975V12.1891L36.7488 9.49062L31.0788 15.3424Z" fill="white"/>
<path fill-rule="evenodd" clip-rule="evenodd" d="M31.0784 15.3423L32.5045 13.8567V2.42578L25.6819 5.12426L19.5872 15.5848L25.6819 13.1288L31.0784 15.3423Z" fill="#454648"/>
<path fill-rule="evenodd" clip-rule="evenodd" d="M25.6815 5.12431L18.4045 2.45598L25.4085 0L32.5042 2.42583L25.6815 5.12431ZM7.57956 12.1283L-0.000732422 9.0357L6.9731 6.76149L14.1898 9.45997L7.57956 12.1283ZM36.7481 9.49054L44.2383 6.39753L51.5154 9.0357L43.8438 12.189L36.7481 9.49054ZM17.7373 16.3128L25.6815 13.1289L33.5948 16.3735L25.7724 19.5875L17.7373 16.3128Z" fill="white"/>
<path fill-rule="evenodd" clip-rule="evenodd" d="M14.189 39.5386L7.24536 26.8951V42.3895L14.189 39.5386ZM25.7716 19.5875L33.594 16.3734L43.843 30.8974V12.189L51.5146 9.03564V39.4179L44.2375 42.4192L33.3213 28.32V46.8764L25.7716 49.9999V19.5875Z" fill="#D5D5D5"/>
<path fill-rule="evenodd" clip-rule="evenodd" d="M17.737 16.3127L25.7722 19.5875V49.9999L18.2526 46.9069L7.24593 26.8951V42.3895L-0.000976562 39.4179V9.03564L7.57931 12.1282L17.737 31.867V16.3127Z" fill="white"/>
<path fill-rule="evenodd" clip-rule="evenodd" d="M17.7371 31.867L7.57935 12.1283L14.1896 9.45996L17.7371 16.6461V31.867Z" fill="#454648"/>
</svg>
